# xmcd CD database file
#
# Track frame offsets:
#	151
#	12503
#	26955
#	39631
#	54448
#	63723
#	79380
#	91153
#	106427
#	120843
#	132874
#	150009
#	161909
#	176816
#	191567
#	203477
#	217776
#	231310
#	245680
#	260368
#
# Disc length: 3655 seconds
#
# Revision: 0
# Processed by: cddbd v1.5.2PL0 Copyright (c) Steve Scherf et al.
# Submitted via: CDex 1.70beta2
#
DISCID=0f0e4514
DTITLE=Various Artist - History of Jazz
DYEAR=1942
DGENRE=Jazz
TTITLE0=Deep In The Heart Of Texas (Hershey-Swander) Bing Crosby acc by Woody Herman's Woodchoppers - Jan 18
TTITLE1=Perdido (Tizol) Duke Ellington and His Famous Orchestra - Jan 21
TTITLE2=Harlem On Parade (Evans-Carter) Anita O'Day with Gene Krupa and His Orchestra - Jan 23
TTITLE3=Minnie The Moocher (Gaskill-Calloway-Mills) Cab Calloway and His Orchestra - Feb 2
TTITLE4=No Blues At All ((Kyle) John Kirby and His Orchestra - Feb 11
TTITLE5=What Am I Here For (Ellington) Duke Ellington and His Famous Orchestra - Feb 26
TTITLE6=The World Is Waiting For The Sunrise (Seitz-Lockhart) Mel Powell and His Orchestra - Feb
TTITLE7=The Jitterbug Waltz (Waller) Fats Waller, His Rhythm and His Orchestra - Mar 16
TTITLE8=Stormy Monday Blues (Eckstine-Hines-Crowder) Billy Eckstine with Earl Hines and His Orchestra - Mar 19
TTITLE9=Palm Springs Jump (Gaillard) Slim Gaillard and His Flat-Foot-Floogie-Boys - Apr 4
TTITLE10=AMERICAN PATROL (Meacham) Glen Miller and His Orchestra - Apr 23
TTITLE11=DON'T FORGET TO SAY NO, BABY (Carmichael-Victor-Johnson) Hoagy Carmichael Trio - May 11
TTITLE12=Flying Home (Goodman-Hampton) Lionel Hampton and His Orchestra - May 26
TTITLE13=TRAV'LIN' LIGHT (Young-Mundy-Mercer) Billie Holiday with Paul Whiteman and His Orchestra - Jun 12
TTITLE14=Strictly Instrumental (Marcus-Seiler-Battle-Benjamin) Jimmie Lunceford and His Orchestra - Jun 26
TTITLE15=Sepian Bounce (Hall-McShann) Jay McShann and His Orchestra - Jul 2
TTITLE16=Walkin' The Dog (Brooks) Joe Marsala and His Chosen Seven - Jul 6
TTITLE17=Royal Garden Blues (Williams) Count Basie and His-All-American Rhythm Section - Jul 24
TTITLE18=Why Don't You Do Right (McCoy) Peggy Lee with Benny Goodman and His Orchestra - Jul 27
TTITLE19=Little John Special (Millinder) Lucky Millinder and His Orchestra - Jul 29
EXTD=YEAR: 1942
EXTT0=
EXTT1=
EXTT2=
EXTT3=
EXTT4=
EXTT5=
EXTT6=
EXTT7=
EXTT8=
EXTT9=
EXTT10=
EXTT11=
EXTT12=
EXTT13=
EXTT14=
EXTT15=
EXTT16=
EXTT17=
EXTT18=
EXTT19=
PLAYORDER=
